<svg width="149" height="24" viewBox="0 0 149 24" fill="none" xmlns="http://www.w3.org/2000/svg">
<path fill-rule="evenodd" clip-rule="evenodd" d="M12.1368 21.9159C6.92732 21.9159 2.48066 17.1908 2.48066 12.037C2.48066 6.90226 6.83425 2.08333 12.0994 2.08333C15.5605 2.08333 18.0527 3.75778 20.0811 6.38123H22.6298C21.867 5.00428 21.0484 3.73948 19.8019 2.75311C17.6621 1.02297 14.8899 0 12.1368 0C5.53207 0 0.155518 5.45133 0.155518 12.0187C0.155518 18.6044 5.60685 24 12.1742 24C14.8533 24 17.4768 23.0144 19.5792 21.3583C20.9005 20.2979 21.8304 18.921 22.7237 17.5066H20.175C18.1649 20.1301 15.5979 21.9159 12.1368 21.9159ZM38.5558 9.35786C36.9562 7.29283 34.779 5.99065 32.0815 5.99065C27.2443 5.99065 23.263 9.91708 23.263 14.7543C23.263 19.5907 27.2634 23.5537 32.0815 23.5537C34.8911 23.5537 36.844 22.3812 38.5558 20.2231V23.1624H40.6583V6.39952H38.5558V9.35786ZM31.9702 21.6184C28.2673 21.6184 25.3463 18.3999 25.3463 14.7726C25.3463 11.1628 28.249 7.92603 31.9702 7.92603C35.6723 7.92603 38.5558 11.1636 38.5558 14.7726C38.5558 18.3999 35.6532 21.6184 31.9702 21.6184ZM43.2069 23.1624H45.4589V0.48285H43.2069V23.1624ZM53.9608 20.5015L48.2677 6.39952H46.0348L52.8631 23.1624H55.1326L61.9425 6.39952H59.7471L53.9608 20.5015ZM62.8724 23.1624H65.1236V6.39952H62.8724V23.1624ZM62.8724 4.24142H65.1236V0.48285H62.8724V4.24142ZM74.8172 5.98986C72.6956 5.98986 71.189 7.10669 69.7938 8.59501V6.39952H67.7097V23.1624H69.9234V12.9478C69.9052 10.2504 72.1372 7.92522 74.8537 7.92522C78.2575 7.92522 79.9694 10.8836 79.9694 13.935V23.1632H82.0527V13.935C82.0535 9.58138 79.5056 5.98986 74.8172 5.98986ZM102.947 0.48285L92.7143 13.4879V0.48285H90.5006V23.1624H92.7143V16.9299L95.617 13.3209L103.003 23.1624H105.813L97.0305 11.5343L105.813 0.48285H102.947ZM106.631 23.1624H108.827V0.48285H106.631V23.1624ZM127.004 10.6227C125.478 7.77568 122.427 5.98986 119.207 5.98986C114.408 5.98986 110.351 9.99026 110.351 14.7901C110.351 19.6265 114.445 23.553 119.246 23.553C121.533 23.553 123.786 22.6413 125.441 21.06C126.446 20.111 127.041 18.9202 127.58 17.6737H125.218C124.026 19.9996 121.924 21.6176 119.207 21.6176C117.552 21.6176 115.933 20.9478 114.706 19.8127C113.439 18.66 112.882 17.2449 112.639 15.5712H128.101C128.102 13.8228 127.86 12.1484 127.004 10.6227ZM112.715 13.6367C113.386 10.493 115.859 7.92522 119.246 7.92522C122.092 7.92522 125.144 9.67445 125.814 13.6367H112.715ZM129.739 23.1624H131.952V6.39952H129.739V23.1624ZM129.739 4.3162H131.952V0.48285H129.739V4.3162ZM141.684 5.98986C139.524 5.98986 138.018 7.10669 136.603 8.59501V6.39952H134.483V23.1624H136.716V12.9478C136.697 10.2321 138.986 7.92522 141.72 7.92522C145.107 7.92522 146.894 10.8836 146.894 13.935V23.1632H148.977V13.935C148.977 9.58138 146.39 5.98986 141.684 5.98986Z" fill="white"/>
</svg>
