<svg width="105" height="24" viewBox="0 0 105 24" fill="none" xmlns="http://www.w3.org/2000/svg">
<g clip-path="url(#clip0_35_800)">
<path d="M94.7533 7.52898L94.559 7.59044C93.8032 6.02811 92.7236 4.78442 91.32 3.85937C89.9381 2.9343 88.1999 2.47176 86.1053 2.47176C84.9393 2.47176 83.8273 2.70816 82.7692 3.18094C81.7112 3.63323 80.7827 4.28077 79.9838 5.12358C79.2064 5.94585 78.5802 6.94286 78.1052 8.11461C77.6301 9.28636 77.3926 10.5814 77.3926 11.9999C77.3926 13.4183 77.6301 14.7133 78.1052 15.8851C78.5802 17.0568 79.2064 18.0641 79.9838 18.9069C80.7827 19.7292 81.7112 20.3665 82.7692 20.8188C83.8273 21.271 84.9393 21.4971 86.1053 21.4971C88.1782 21.4971 89.8625 21.1887 91.1581 20.572C92.4752 19.9348 93.5873 18.9686 94.4942 17.6736L94.6885 17.735L94.624 19.7085C94.1274 20.2018 93.5551 20.6438 92.9074 21.0344C92.2596 21.4044 91.5578 21.723 90.8021 21.9903C90.0679 22.237 89.3013 22.422 88.5024 22.5453C87.7035 22.6893 86.9046 22.7613 86.1056 22.7613C84.443 22.7613 82.8559 22.5044 81.3444 21.9904C79.8329 21.4765 78.5049 20.757 77.3605 19.832C76.2161 18.8864 75.3092 17.7557 74.6398 16.4401C73.9704 15.1039 73.6357 13.6238 73.6357 11.9998C73.6357 10.3758 73.9704 8.90602 74.6398 7.59041C75.3092 6.25419 76.2161 5.11328 77.3605 4.16769C78.5049 3.22207 79.8329 2.50257 81.3444 2.00921C82.8559 1.49528 84.443 1.23831 86.1056 1.23831C86.9046 1.23831 87.7035 1.29998 88.5024 1.42332C89.3013 1.54666 90.0679 1.74196 90.8021 2.00921C91.5578 2.25589 92.2596 2.57453 92.9074 2.96512C93.5551 3.33515 94.1274 3.76684 94.624 4.2602L94.7533 7.52898ZM23.3798 13.4186C23.1424 13.5212 22.9157 13.6549 22.6997 13.8196C22.4836 13.9839 22.3756 14.2101 22.3756 14.498V18.2907C21.3391 19.7091 20.0112 20.8089 18.3917 21.5901C16.7722 22.3713 14.98 22.7619 13.015 22.7619C11.3524 22.7619 9.76533 22.5049 8.25381 21.9909C6.74232 21.477 5.41436 20.7575 4.26992 19.8325C3.1255 18.8869 2.2186 17.7563 1.5492 16.4406C0.879844 15.1044 0.545166 13.6243 0.545166 12.0003C0.545166 10.3763 0.879844 8.90653 1.5492 7.59092C2.2186 6.2547 3.1255 5.11379 4.26992 4.1682C5.41436 3.22257 6.74232 2.50309 8.25381 2.00974C9.76531 1.49579 11.3524 1.23881 13.015 1.23881C13.814 1.23881 14.6129 1.30048 15.4119 1.42382C16.2108 1.54716 16.9773 1.74246 17.7115 2.00972C18.4673 2.2564 19.169 2.57504 19.8168 2.96563C20.4646 3.33565 21.0368 3.76734 21.5335 4.2607L21.6632 7.52922L21.4689 7.59068C20.7131 6.02833 19.6335 4.78463 18.23 3.85958C16.848 2.93451 15.1098 2.47198 13.0153 2.47198C11.8493 2.47198 10.7372 2.70838 9.67922 3.18118C8.62115 3.63345 7.69264 4.28099 6.89369 5.12379C6.11633 5.94608 5.49015 6.9431 5.01515 8.11485C4.54007 9.28658 4.30253 10.5817 4.30253 12.0001C4.30253 13.3979 4.52926 14.6827 4.98273 15.8545C5.45779 17.0262 6.08399 18.0335 6.86133 18.8764C7.66025 19.6986 8.58873 20.3462 9.6468 20.819C10.7049 21.2712 11.8277 21.4973 13.0153 21.4973C15.261 21.4973 17.1827 21.0862 18.7806 20.2639V14.4977C18.7806 14.2101 18.6619 13.9839 18.4245 13.8193C18.2085 13.655 17.9925 13.5213 17.7767 13.4183L17.8063 13.2643C17.9141 13.2831 18.1085 13.3036 18.3893 13.3258C18.6702 13.3446 18.9617 13.365 19.2638 13.3872H22.0495C22.3086 13.3684 22.5569 13.3479 22.7944 13.3258C23.0318 13.307 23.2153 13.2865 23.3449 13.2643L23.3798 13.4186ZM46.8398 1.88614C46.6237 1.9888 46.4078 2.12248 46.192 2.28718C45.976 2.45151 45.8573 2.75986 45.836 3.21223C45.8162 3.70559 45.7947 4.33258 45.7714 5.0932C45.7714 5.83326 45.7615 6.67607 45.7418 7.62165C45.7418 8.56729 45.7319 9.59514 45.7121 10.7052V14.1588C45.6924 15.495 45.5196 16.6359 45.1937 17.5815C44.8698 18.5271 44.438 19.3185 43.8982 19.9558C43.3799 20.5931 42.7969 21.0967 42.1491 21.4667C41.5229 21.8367 40.8967 22.1143 40.2705 22.2993C39.6659 22.505 39.0937 22.6283 38.5539 22.6693C38.0141 22.731 37.593 22.7618 37.2907 22.7618C36.0599 22.7618 34.8723 22.6076 33.7279 22.2993C32.5835 22.0116 31.5794 21.5388 30.7157 20.8808C29.852 20.223 29.161 19.3699 28.6428 18.3215C28.1246 17.2731 27.8654 15.9986 27.8654 14.4979V11.0136V7.80666C27.8654 6.81992 27.8556 5.93598 27.8358 5.15484C27.8358 4.35311 27.8259 3.70557 27.8062 3.2122C27.7864 2.75994 27.6677 2.45159 27.4501 2.28715C27.234 2.12282 27.0181 1.98914 26.8023 1.88611L26.8319 1.73212C26.9398 1.75092 27.1126 1.77141 27.3504 1.79358C27.6095 1.81238 27.8686 1.83287 28.1277 1.85504C28.4086 1.85504 28.6785 1.86444 28.9375 1.88324H30.1035C30.3626 1.86444 30.6325 1.85504 30.9132 1.85504C31.194 1.83624 31.4532 1.81575 31.6905 1.79358C31.9497 1.77478 32.1331 1.75429 32.241 1.73212L32.2706 1.88611C32.0332 1.98877 31.8065 2.12245 31.5904 2.28715C31.3961 2.45148 31.2881 2.75983 31.2663 3.2122C31.2466 3.70557 31.2251 4.35311 31.2018 5.15484V14.4979C31.2018 16.7386 31.7524 18.3934 32.8536 19.4624C33.9548 20.5313 35.5851 21.0658 37.7444 21.0658C38.3706 21.0658 39.0831 20.9938 39.8821 20.8498C40.6811 20.6855 41.426 20.3565 42.117 19.8631C42.8295 19.3697 43.4233 18.6708 43.8984 17.7663C44.395 16.8618 44.6434 15.6592 44.6434 14.1586C44.6434 12.5346 44.6335 11.147 44.6137 9.99581C44.6137 8.82408 44.6039 7.82707 44.5841 7.00478C44.5841 6.16196 44.5742 5.44247 44.5545 4.8463C44.5347 4.25018 44.5132 3.70542 44.4899 3.21204C44.4701 2.75978 44.3514 2.45143 44.1338 2.28699C43.9177 2.12266 43.7018 1.98897 43.486 1.88592L43.5157 1.73196C43.753 1.77293 44.0229 1.81411 44.3254 1.85549C44.6275 1.87429 44.9082 1.88369 45.1675 1.88369C45.4049 1.88369 45.6748 1.87429 45.9772 1.85549C46.3011 1.81452 46.5818 1.77334 46.8194 1.73196L46.8398 1.88614ZM70.3426 7.52898L70.1482 7.59044C69.3925 6.02811 68.3128 4.78442 66.9093 3.85937C65.5273 2.9343 63.7891 2.47176 61.6946 2.47176C60.5286 2.47176 59.4166 2.70816 58.3585 3.18094C57.3004 3.63323 56.3719 4.28077 55.573 5.12358C54.7957 5.94585 54.1695 6.94286 53.6944 8.11461C53.2194 9.28638 52.9819 10.5815 52.9819 11.9999C52.9819 13.4182 53.2194 14.7133 53.6945 15.8851C54.1695 17.0568 54.7957 18.0641 55.5731 18.9069C56.372 19.7292 57.3005 20.3665 58.3585 20.8188C59.4166 21.271 60.5286 21.4971 61.6947 21.4971C63.7676 21.4971 65.4518 21.1887 66.7474 20.572C68.0645 19.9348 69.1766 18.9686 70.0835 17.6736L70.2778 17.735L70.2132 19.7085C69.7166 20.2018 69.1443 20.6438 68.4966 21.0343C67.8488 21.4044 67.147 21.723 66.3912 21.9903C65.6571 22.2369 64.8905 22.4219 64.0916 22.5453C63.2926 22.6893 62.4937 22.7613 61.6948 22.7613C60.0321 22.7613 58.445 22.5043 56.9336 21.9904C55.4221 21.4765 54.0941 20.757 52.9497 19.8319C51.8052 18.8863 50.8983 17.7557 50.229 16.4401C49.5596 15.1039 49.2249 13.6238 49.2249 11.9998C49.2249 10.3758 49.5596 8.906 50.229 7.59039C50.8983 6.25416 51.8052 5.11326 52.9497 4.16767C54.0941 3.22204 55.4221 2.50255 56.9336 2.00918C58.4451 1.49525 60.0321 1.23828 61.6948 1.23828C62.4937 1.23828 63.2926 1.29995 64.0916 1.42329C64.8905 1.54663 65.6571 1.74193 66.3912 2.00918C67.147 2.25587 67.8488 2.5745 68.4966 2.9651C69.1443 3.33512 69.7165 3.76681 70.2132 4.26017L70.3426 7.52898ZM104.516 22.2374C104.408 22.2186 104.224 22.1981 103.965 22.176C103.728 22.176 103.469 22.1666 103.188 22.1478C102.907 22.1478 102.637 22.1383 102.378 22.1195H100.435C100.176 22.1383 99.9166 22.1588 99.6575 22.181C99.4201 22.1998 99.2366 22.2203 99.1071 22.2424L99.0774 22.1189C99.2935 22.0162 99.5094 21.8825 99.7252 21.7178C99.9413 21.5535 100.06 21.2452 100.081 20.7928C100.101 20.2994 100.111 19.7855 100.111 19.251C100.131 18.7166 100.141 18.1101 100.141 17.4317V15.1191V12.0047V8.89041V6.54692C100.141 5.86854 100.131 5.27239 100.111 4.75845C100.111 4.22398 100.101 3.71006 100.081 3.2167C100.062 2.76444 99.9428 2.45608 99.7252 2.29165C99.5091 2.10664 99.2932 1.96279 99.0774 1.86012L99.107 1.73662C99.2366 1.77759 99.4201 1.80842 99.6575 1.82912C99.9166 1.82912 100.176 1.83852 100.435 1.85732C100.716 1.87612 100.986 1.88553 101.245 1.88553H102.378C102.637 1.86672 102.907 1.85732 103.188 1.85732C103.469 1.83852 103.728 1.81804 103.965 1.79587C104.224 1.77707 104.408 1.75658 104.516 1.73441L104.545 1.85796C104.308 1.96062 104.081 2.10446 103.865 2.28947C103.671 2.4538 103.563 2.76215 103.541 3.21452C103.521 3.70788 103.5 4.2218 103.476 4.75627V19.2489C103.496 19.7833 103.518 20.2973 103.541 20.7906C103.561 21.2429 103.669 21.5512 103.865 21.7157C104.081 21.88 104.308 22.0137 104.545 22.1167L104.516 22.2374Z" fill="white"/>
</g>
<defs>
<clipPath id="clip0_35_800">
<rect width="104" height="24" fill="white" transform="translate(0.545166)"/>
</clipPath>
</defs>
</svg>
