<svg width="146" height="24" viewBox="0 0 146 24" fill="none" xmlns="http://www.w3.org/2000/svg">
<g clip-path="url(#clip0_35_802)">
<path fill-rule="evenodd" clip-rule="evenodd" d="M0 0.676282L2.19373 3.15633V21.308L0.567833 23.683L10.5254 23.6983L8.73064 21.5129L8.54428 14.9759L18.1455 15.0281C21.0557 14.0568 24.0474 11.9861 24.1911 7.79967C24.1452 3.74271 21.6744 1.14062 18.8057 0.622923L0 0.676282ZM8.18849 1.83712V13.4983L15.555 13.5516C17.2312 12.1967 18.5019 11.159 18.451 7.90582C18.427 5.25321 17.8684 2.94006 15.4025 1.83769L8.18849 1.83712ZM28.7994 0.544021L30.9931 3.02463V21.1763L29.3672 23.5524L39.3242 23.5666L37.5295 21.3812L37.3431 14.8442H37.383L47.6701 23.6404L56.2073 23.5706L48.4156 16.8145H41.9109L39.6182 14.8567L46.9443 14.8964C49.8545 13.9251 52.8456 11.8544 52.9899 7.66798C52.9446 3.61158 50.4738 1.00892 47.6045 0.491797L28.7994 0.544021ZM36.9873 1.70486V13.366L44.3538 13.4194C46.0306 12.0644 47.3007 11.0267 47.2498 7.77299C47.2258 5.12095 46.6672 2.80723 44.2014 1.70486H36.9873ZM64.4264 0.517909H73.0122L84.1885 21.308C84.6722 22.9133 86.1188 22.7151 87.0845 23.419H76.2634L77.8893 22.9093L77.7877 21.3613L74.9933 16.8758L65.4932 16.9291L63.4612 21.2563C63.3935 21.7484 62.8683 22.122 63.2579 22.7333L64.0203 23.4718L59.3465 23.3662L61.379 22.7333L69.0494 6.53382V5.42521L65.8085 1.09123L64.4264 0.517909ZM66.0938 15.4481L70.0397 7.95918L74.1479 15.4061L66.0938 15.4481ZM122.485 0.563321H131.07L142.247 21.3534C142.731 22.9587 144.177 22.7606 145.143 23.4644H134.321L135.947 22.9536L135.845 21.4056L133.052 16.9212L123.552 16.9745L121.52 21.3006C121.451 21.7939 120.927 22.1674 121.316 22.7787L122.078 23.5172L117.405 23.4116L119.437 22.7787L127.108 6.57924V5.47005L123.867 1.13664L122.485 0.563321ZM124.152 15.4941L128.098 8.00516L132.207 15.451L124.152 15.4941ZM90.0537 0.301636L105.349 0.386215C110.274 1.54251 113.408 4.55898 114.379 9.82106L114.338 13.9251C113.44 18.6139 110.498 21.8489 105.308 23.4866L89.9723 23.5297L89.9701 23.033C92.3016 22.8565 92.4879 22.5897 92.4939 21.2024V2.50126C92.4677 1.47553 92.2633 0.836926 90.0128 0.766538L90.0537 0.301636ZM98.7478 1.90183L98.733 22.135C100.75 22.1418 102.5 22.3314 103.489 21.8256C105.729 20.7999 106.77 19.2247 106.865 17.7448L106.811 5.79759C106.812 3.88632 104.743 2.53703 103.548 2.18565C102.694 1.86834 100.989 1.85528 98.7478 1.90183Z" fill="white" stroke="white" stroke-width="0.718154" stroke-miterlimit="2.613"/>
</g>
<defs>
<clipPath id="clip0_35_802">
<rect width="145.143" height="24" fill="white"/>
</clipPath>
</defs>
</svg>
