<svg width="121" height="24" viewBox="0 0 121 24" fill="none" xmlns="http://www.w3.org/2000/svg">
<path fill-rule="evenodd" clip-rule="evenodd" d="M108.68 0.474476H120.477V2.35435C120.135 2.23928 119.776 2.17997 119.414 2.17867H112.633V10.9629H119.229C119.704 10.9629 120.125 10.9109 120.477 10.8223V12.6939C120.178 12.6238 119.766 12.5883 119.256 12.5883H112.633V21.6713H119.212C119.573 21.6713 120.003 21.6188 120.477 21.5044V23.5249H108.697C108.791 23.1696 108.838 22.8035 108.838 22.4358V1.58983C108.838 1.13338 108.785 0.755761 108.68 0.474476ZM105.948 6.45668L102.54 6.43092C102.373 4.5155 101.275 2.66139 98.8594 2.31983C93.685 1.85411 92.2265 7.537 92.3584 11.6924C92.4908 15.6979 93.1312 21.8558 98.4725 21.8558C100.713 21.8558 102.865 19.554 102.794 17.6128L105.948 17.587C105.719 21.5925 101.126 23.9113 98.9382 23.9906C91.463 24.2456 88.3349 19.2644 88.1773 12.1571C88.0371 5.71947 90.6722 0 98.0599 0C104.385 0.0880948 105.606 3.83032 105.948 6.45668ZM52.7848 20.9068L55.0428 19.0182C56.2194 20.9599 57.1859 21.8465 59.5227 21.8465C61.8941 21.8465 63.8888 20.4061 63.8888 17.859C63.8888 16.6025 63.3788 15.5748 62.3691 14.802C61.9116 14.4414 60.7525 13.818 58.9251 12.9484C56.1932 11.6398 53.5318 9.93514 53.5318 6.50974C53.5318 2.18743 57.2034 0.281285 61.077 0.140127C63.3701 0.0525478 66.2164 1.31833 67.3668 2.74073L65.0743 4.50623C64.6654 3.7432 64.0575 3.10513 63.3152 2.65976C62.5728 2.2144 61.7238 1.97837 60.8581 1.97672C57.9324 1.97672 55.6136 5.3676 58.038 7.70443C58.6526 8.30152 59.9096 9.03925 61.8245 9.91762C64.8811 11.3498 67.4899 13.0622 67.4899 16.8488C67.4899 18.1573 67.1473 19.3783 66.4709 20.4941C65.1098 22.7429 62.8343 23.8675 59.6546 23.8675C56 23.8675 55.2803 23.0329 52.7848 20.9068ZM20.6168 0.474476H32.4045V2.35435C32.0621 2.23933 31.7034 2.18001 31.3422 2.17867H24.5609V10.9629H31.1578C31.6322 10.9629 32.0542 10.9109 32.405 10.8223V12.6939C32.1062 12.6238 31.6935 12.5883 31.1933 12.5883H24.5609V21.6713H31.1402C31.5003 21.6713 31.931 21.6188 32.405 21.5044V23.5249H20.6348C20.7209 23.1683 20.7649 22.8027 20.7662 22.4358V1.58983C20.7662 1.13338 20.7131 0.755761 20.6168 0.474476ZM0 0.474476H4.28677V0.685697C4.28677 0.878887 4.34807 1.13338 4.45368 1.45846L10.4967 19.6508L16.6989 1.37912C16.7952 1.07208 16.8483 0.773277 16.8483 0.474476H18.9301C18.7194 0.84334 18.5612 1.16893 18.4644 1.45846L11.3838 22.5852C11.3137 22.7872 11.2524 23.1035 11.1999 23.5254H7.68589C7.63279 23.2061 7.55353 22.8916 7.44891 22.5852L0.509508 1.62537C0.349208 1.23882 0.182094 0.855128 0.00824279 0.474476H0ZM45.5291 12.4919C48.3398 11.9381 50.4922 9.78625 50.4922 6.71169C50.4922 2.67891 47.1189 0.47396 43.3416 0.47396H36.4373C36.5336 0.825824 36.5867 1.19469 36.5867 1.58107V22.4173C36.5867 22.8655 36.5336 23.2431 36.4373 23.5244H40.5484C40.4478 23.164 40.3975 22.7915 40.3989 22.4173V12.8433L41.7163 12.9839L48.6036 23.5244H52.741L45.5291 12.4919ZM44.8176 10.7352C44.0711 11.2617 43.1747 11.525 42.1469 11.525H40.3902V2.15343H41.9625C43.3071 2.15343 44.3519 2.48675 45.0989 3.1539C46.1179 4.07709 46.6362 5.32433 46.6362 6.88788C46.6362 8.57456 46.0298 9.85735 44.8176 10.7357M87.4921 22.5677L79.8149 1.23899C79.7297 0.992389 79.6794 0.735045 79.6655 0.474476H76.3442C76.3442 0.747003 76.3004 1.03653 76.1948 1.32657L68.7552 22.5677C68.6578 22.8743 68.5002 23.1911 68.2895 23.5249H70.4326C70.4243 23.1736 70.4681 22.8485 70.565 22.5677L72.7689 16.3037H81.2461L83.4248 22.5682C83.5391 22.9098 83.5917 23.2261 83.5917 23.5249H88.0371C87.7816 23.1648 87.5977 22.8397 87.4921 22.5677ZM73.349 14.6083L76.9331 4.19919L80.614 14.6083H73.349Z" fill="white"/>
</svg>
