<svg width="64" height="27" viewBox="0 0 64 27" fill="none" xmlns="http://www.w3.org/2000/svg">
<g clip-path="url(#clip0_35_798)">
<path d="M60.5049 25.5243L51.171 0.0224341L51.1647 0.0055542H50.9805L49.0584 5.24609L45.5592 14.7866L45.551 14.7791C44.3383 13.7171 42.6272 13.0533 40.4724 12.8061L39.8152 12.7388L40.4672 12.6558C44.0207 12.0221 46.4094 9.79498 46.4094 7.1117C46.4094 3.43212 42.9219 0.863805 37.9264 0.863805H27.5322V1.05011H30.5525V20.0632L23.2174 0.0223716L23.2108 0.0055542H23.0266L21.1045 5.24609L13.691 25.4586L13.6454 25.4639C13.5187 25.4794 13.3934 25.4917 13.2694 25.501C13.0829 25.5155 12.8975 25.5242 12.7116 25.5242H5.22086L19.4597 1.05005L19.5655 0.866118H2.15087V8.43708H2.33565C2.36841 4.74938 4.53258 1.05005 9.31416 1.05005H15.0828L0.736328 25.7076H20.0637V18.4541H19.8789C19.8537 21.6683 18.0177 24.7212 14.025 25.4105L13.898 25.432L16.9388 17.138H25.4569L28.5263 25.5243H25.4985V25.7076H37.3825V25.5243H34.3417V12.874H37.8503C41.4208 12.874 43.4687 14.457 43.4687 17.2157V19.4596C43.4687 19.7069 43.4856 20.0684 43.5043 20.3707V20.3817L41.6185 25.5231H39.1549V25.7064H44.2545V25.5231H41.8174L43.5348 20.8413C43.5383 20.8866 43.54 20.9139 43.54 20.9139L43.5874 21.3357L43.633 21.6148C43.9196 23.3412 44.585 24.6103 45.6101 25.3867L45.7575 25.4929C46.5363 26.0302 47.5041 26.3024 48.6356 26.3024C50.1344 26.3024 51.1337 25.9316 51.9588 25.0589L51.8506 24.9579C51.0904 25.6542 50.4525 25.9363 49.6531 25.9363C48.2912 25.9363 47.5784 24.2969 47.5784 22.6803V19.5362C47.5857 18.7561 47.4625 17.9802 47.2141 17.24L47.1802 17.1426V17.1391H53.4106L56.48 25.5254H53.4522V25.7088H63.7363V25.5254L60.5049 25.5243ZM17.0066 16.9546L21.2028 5.51423L25.3897 16.9546H17.0066ZM34.3436 12.69V1.05005H37.0217C40.5993 1.05005 42.488 3.16054 42.488 7.15121C42.488 11.3954 41.4038 12.69 37.8503 12.69H34.3436ZM47.1076 16.9546L47.0895 16.9093C46.8126 16.2401 46.4095 15.6295 45.9018 15.1104L45.7264 14.9363L45.7077 14.9189L49.1542 5.51423L53.3411 16.9546H47.1076Z" fill="white"/>
</g>
<defs>
<clipPath id="clip0_35_798">
<rect width="63" height="26.3077" fill="white" transform="translate(0.736328)"/>
</clipPath>
</defs>
</svg>
